<svg xmlns="http://www.w3.org/2000/svg" version="1.1" xmlns:xlink="http://www.w3.org/1999/xlink" xmlns:svgjs="http://svgjs.com/svgjs" width="1441" height="1202" preserveAspectRatio="none" viewBox="0 0 1441 1202"><g mask="url(&quot;#SvgjsMask3191&quot;)" fill="none"><rect width="1441" height="1202" x="0" y="0" fill="rgba(19, 27, 73, 1)"></rect><path d="M942.83 479.17a18.7 18.7 0 1 0-15.87 33.87z" fill="rgba(204, 20, 20, 0.61)"></path><path d="M1163.29 616.23 a86.21 86.21 0 1 0 172.42 0 a86.21 86.21 0 1 0 -172.42 0z" fill="rgba(30, 196, 47, 0.62)"></path><path d="M817.67 996.03 a28.59 28.59 0 1 0 57.18 0 a28.59 28.59 0 1 0 -57.18 0z" fill="#d3b714"></path><path d="M430.83 546.66 a41.26 41.26 0 1 0 82.52 0 a41.26 41.26 0 1 0 -82.52 0z" fill="rgba(30, 196, 47, 0.62)"></path><path d="M376.28 1052.43L378.77 1052.43L378.77 1054.92L376.28 1054.92z" stroke="rgba(204, 20, 20, 0.61)"></path><path d="M454.35 1071.34a115.46 115.46 0 1 0-148.73-176.64z" fill="#d3b714"></path><path d="M1262.97 542.39L1353.29 542.39L1353.29 632.71L1262.97 632.71z" fill="rgba(30, 196, 47, 0.62)"></path><path d="M990.5 153.76L1030.88 153.76L1030.88 163.94L990.5 163.94z" fill="rgba(204, 20, 20, 0.61)"></path><path d="M1043.91 570.86 a97.5 97.5 0 1 0 195 0 a97.5 97.5 0 1 0 -195 0z" fill="rgba(204, 20, 20, 0.61)"></path><path d="M892.04 938.82a12.72 12.72 0 1 0 11.81-22.53z" stroke="#d3b714"></path><path d="M364.42 777.54 a108.86 108.86 0 1 0 217.72 0 a108.86 108.86 0 1 0 -217.72 0z" stroke="rgba(152, 43, 43, 1)"></path><path d="M1085.67 399.17 a63.96 63.96 0 1 0 127.92 0 a63.96 63.96 0 1 0 -127.92 0z" fill="rgba(30, 196, 47, 0.62)"></path><path d="M226.87 524.49 a87.2 87.2 0 1 0 174.4 0 a87.2 87.2 0 1 0 -174.4 0z" fill="rgba(30, 196, 47, 0.62)"></path><path d="M229.56 780.87 a49.06 49.06 0 1 0 98.12 0 a49.06 49.06 0 1 0 -98.12 0z" fill="rgba(204, 20, 20, 0.61)"></path><path d="M138.78 819.85L243.52 819.85L243.52 924.59L138.78 924.59z" stroke="#d3b714"></path></g><defs><mask id="SvgjsMask3191"><rect width="1441" height="1202" fill="#ffffff"></rect></mask></defs></svg>